name D:\school\WTK\thesis\model\3dpredictsim\Results\debug_batch\Pog_s1_tmt_bCst_d00_k500_ig24_act_TTC.mot
datacolumns 128
datarows 4
range 0.67627334 0.71684974
endheader
time	pelvis_tilt	pelvis_list	pelvis_rotation	pelvis_tx	pelvis_ty	pelvis_tz	hip_flexion_l	hip_adduction_l	hip_rotation_l	hip_flexion_r	hip_adduction_r	hip_rotation_r	knee_angle_l	knee_angle_r	ankle_angle_l	ankle_angle_r	subtalar_angle_l	subtalar_angle_r	tmt_angle_l	tmt_angle_r	mtp_angle_l	mtp_angle_r	lumbar_extension	lumbar_bending	lumbar_rotation	arm_flex_l	arm_add_l	arm_rot_l	arm_flex_r	arm_add_r	arm_rot_r	elbow_flex_l	elbow_flex_r	pro_sup_l	pro_sup_r	glut_med1_l/activation	glut_med2_l/activation	glut_med3_l/activation	glut_min1_l/activation	glut_min2_l/activation	glut_min3_l/activation	semimem_l/activation	semiten_l/activation	bifemlh_l/activation	bifemsh_l/activation	sar_l/activation	add_long_l/activation	add_brev_l/activation	add_mag1_l/activation	add_mag2_l/activation	add_mag3_l/activation	tfl_l/activation	pect_l/activation	grac_l/activation	glut_max1_l/activation	glut_max2_l/activation	glut_max3_l/activation	iliacus_l/activation	psoas_l/activation	quad_fem_l/activation	gem_l/activation	peri_l/activation	rect_fem_l/activation	vas_med_l/activation	vas_int_l/activation	vas_lat_l/activation	med_gas_l/activation	lat_gas_l/activation	soleus_l/activation	tib_post_l/activation	flex_dig_l/activation	flex_hal_l/activation	tib_ant_l/activation	per_brev_l/activation	per_long_l/activation	per_tert_l/activation	ext_dig_l/activation	ext_hal_l/activation	ercspn_l/activation	intobl_l/activation	extobl_l/activation	glut_med1_r/activation	glut_med2_r/activation	glut_med3_r/activation	glut_min1_r/activation	glut_min2_r/activation	glut_min3_r/activation	semimem_r/activation	semiten_r/activation	bifemlh_r/activation	bifemsh_r/activation	sar_r/activation	add_long_r/activation	add_brev_r/activation	add_mag1_r/activation	add_mag2_r/activation	add_mag3_r/activation	tfl_r/activation	pect_r/activation	grac_r/activation	glut_max1_r/activation	glut_max2_r/activation	glut_max3_r/activation	iliacus_r/activation	psoas_r/activation	quad_fem_r/activation	gem_r/activation	peri_r/activation	rect_fem_r/activation	vas_med_r/activation	vas_int_r/activation	vas_lat_r/activation	med_gas_r/activation	lat_gas_r/activation	soleus_r/activation	tib_post_r/activation	flex_dig_r/activation	flex_hal_r/activation	tib_ant_r/activation	per_brev_r/activation	per_long_r/activation	per_tert_r/activation	ext_dig_r/activation	ext_hal_r/activation	ercspn_r/activation	intobl_r/activation	extobl_r/activation	
          0.67627334	         -2.92994854	          1.26686870	        -10.37885075	          0.84534168	          0.84610977	          0.00362822	         34.43855235	         -0.28866392	         -1.13961034	        -18.51668999	         -4.02533531	          7.85701234	        -14.62037989	        -16.36249669	          9.45988780	        -13.50829467	         -1.54488083	         17.58422374	          0.06971400	          2.03389670	         -0.06254493	         32.12253008	          0.53521172	          1.52281282	          4.46875959	        -13.75634967	        -13.63900377	         10.95443982	          2.22978311	        -13.63393338	         17.25768998	         17.51204638	         48.29651287	         86.51662706	         86.51662706	          0.10052128	          0.07894055	          0.05000211	          0.06970044	          0.06126987	          0.05004318	          0.15541979	          0.08960864	          0.10532904	          0.09436235	          0.05001346	          0.05005607	          0.06803694	          0.18810944	          0.18237294	          0.13349630	          0.05000996	          0.05005952	          0.12196981	          0.06127107	          0.05001464	          0.14192963	          0.05442821	          0.05684900	          0.44261439	          0.12884480	          0.17203225	          0.06127851	          0.20253501	          0.20409964	          0.18407036	          0.06276931	          0.05000470	          0.05000039	          0.05001150	          0.07502111	          0.06529809	          0.62604100	          0.33550655	          0.23272315	          0.53931543	          0.63337704	          0.42579735	          0.05000015	          0.13863059	          0.11212324	          0.10668729	          0.07205287	          0.07425398	          0.15110809	          0.11183337	          0.07503499	          0.05015246	          0.05001164	          0.05001566	          0.05003198	          0.06127639	          0.18837102	          0.14276002	          0.11823019	          0.05287952	          0.05013537	          0.15039478	          0.06193966	          0.06759381	          0.05005569	          0.05004833	          0.05007711	          0.34962062	          0.55003063	          0.06321737	          0.05042663	          0.07271671	          0.30726931	          0.05000979	          0.05002541	          0.13372759	          0.13103401	          0.19595435	          0.05000380	          0.13816762	          0.17870372	          0.18245431	          0.23189617	          0.53759805	          0.37700659	          0.50044620	          0.44466433	          0.05000107	          0.05000037	          0.07508307	          0.07508487	
          0.68979881	         -2.92849184	          1.21839503	        -10.54831323	          0.86819136	          0.84413251	          0.00318371	         33.62225013	          0.01017293	         -0.93937466	        -18.44895818	         -4.25274527	          7.53273086	        -15.52178740	        -18.16343697	          8.47032572	        -16.91896500	         -1.92491688	         17.65103791	         -0.09283370	          1.46875674	         -0.13543750	         33.21377736	          0.83396180	          1.31647959	          4.60545636	        -15.56759456	        -13.64123201	         11.05720423	          1.58075235	        -13.73459551	         17.52819366	         17.46423433	         49.65828884	         86.51662706	         86.51662706	          0.25892295	          0.29185462	          0.48034850	          0.05688134	          0.05000492	          0.38227055	          0.13369241	          0.10835796	          0.11099047	          0.07700504	          0.05001446	          0.07225369	          0.16914812	          0.24296394	          0.23476757	          0.18027887	          0.05000307	          0.06131461	          0.13617268	          0.05000295	          0.19241402	          0.19935842	          0.06127055	          0.05589774	          0.36119456	          0.10514589	          0.32842906	          0.05000631	          0.16527808	          0.16655490	          0.15021003	          0.05971721	          0.06126839	          0.06123884	          0.05011624	          0.06123101	          0.06127093	          0.53643453	          0.34513490	          0.18991486	          0.44011108	          0.67684394	          0.52674521	          0.05559755	          0.11312884	          0.09149755	          0.08706311	          0.06123543	          0.06127148	          0.12331225	          0.09126322	          0.06123740	          0.05005310	          0.06112982	          0.06127018	          0.05000253	          0.05001199	          0.18396073	          0.24374990	          0.12313126	          0.06474112	          0.06128132	          0.12273124	          0.07887197	          0.06128765	          0.06115861	          0.06126445	          0.06127461	          0.28530688	          0.53304135	          0.06128099	          0.06127391	          0.05934098	          0.25074551	          0.07298133	          0.05424811	          0.10912860	          0.10692957	          0.15990747	          0.05000023	          0.11275093	          0.14583052	          0.14889104	          0.32990475	          0.53872187	          0.35614207	          0.73730993	          0.61080859	          0.34630280	          0.08376086	          0.06127125	          0.06127274	
          0.70332427	         -2.92324850	          1.18102480	        -10.66768100	          0.89075743	          0.84197459	          0.00272346	         32.76616359	          0.31569087	         -0.70713995	        -18.08676632	         -4.44417304	          7.21194301	        -16.56797503	        -20.46853531	          7.56203834	        -19.68901115	         -2.31142379	         17.57755504	         -0.04336291	          1.02678124	         -0.14106319	         32.08863591	          1.09301004	          1.08029603	          4.71794479	        -17.23555174	        -13.64810274	         11.32745269	          0.95229025	        -13.82398365	         17.73201245	         17.28616074	         50.92513565	         86.51662706	         86.51662706	          0.34255895	          0.47060153	          0.57500913	          0.06420890	          0.29571468	          0.31196254	          0.10909905	          0.10013664	          0.09057368	          0.06284374	          0.05000464	          0.05896261	          0.13803268	          0.19827296	          0.24031437	          0.19514156	          0.05000268	          0.05003904	          0.11112619	          0.30333526	          0.27173521	          0.23697862	          0.05000068	          0.05000063	          0.35737346	          0.08587970	          0.26801599	          0.05000042	          0.13489562	          0.20893420	          0.18751873	          0.05000018	          0.05000037	          0.05000005	          0.05000013	          0.05000356	          0.05000238	          0.73097024	          0.43574808	          0.21496315	          0.70558410	          0.80626484	          0.54424776	          0.06638039	          0.09231827	          0.07466608	          0.09228570	          0.05000225	          0.05000116	          0.17930993	          0.07448410	          0.05000652	          0.05002825	          0.05000201	          0.05000351	          0.05000350	          0.06127638	          0.15012940	          0.19891197	          0.10048219	          0.05283435	          0.05001095	          0.10026082	          0.06437415	          0.05001597	          0.05001395	          0.05000941	          0.05000567	          0.23761233	          0.50702864	          0.05000846	          0.05000873	          0.05000362	          0.22145882	          0.07956286	          0.11273581	          0.08905713	          0.08725934	          0.13049169	          0.05000097	          0.09200986	          0.11900479	          0.12150208	          0.30877603	          0.43962732	          0.30253145	          0.71594952	          0.77396176	          0.28259864	          0.12377351	          0.05000019	          0.05000153	
          0.71684974	         -2.91540887	          1.15350731	        -10.72901037	          0.91264486	          0.84007594	          0.00218587	         32.12634997	          0.64350367	         -0.50396353	        -17.41949587	         -4.61310477	          6.91610692	        -17.86310298	        -23.22578194	          6.48451111	        -21.73744331	         -2.71160979	         17.38068493	         -0.05324065	          0.63292502	         -0.25061840	         28.51855991	          1.28782147	          0.82255021	          4.80676287	        -18.65239806	        -13.64087810	         11.78121156	          0.42355716	        -13.87791411	         17.88390116	         16.91173389	         51.97338103	         86.51662706	         86.51662706	          0.43907378	          0.59646124	          0.71217691	          0.11524403	          0.30938292	          0.43648254	          0.08902980	          0.08171818	          0.07391273	          0.05128394	          0.05000338	          0.05000261	          0.11264209	          0.16180896	          0.21247317	          0.19384974	          0.05000577	          0.05002128	          0.09068675	          0.36997181	          0.31732920	          0.25000516	          0.05000095	          0.05000106	          0.29163909	          0.07009903	          0.29802434	          0.05000151	          0.33614502	          0.36685479	          0.32816641	          0.05000058	          0.05000153	          0.05000026	          0.12893133	          0.05001220	          0.05001096	          0.85853120	          0.35558971	          0.17541947	          0.57578833	          0.65795557	          0.61383252	          0.09109249	          0.07533584	          0.06093095	          0.07531050	          0.05000591	          0.05000563	          0.14632640	          0.06078728	          0.05001701	          0.05524292	          0.05000116	          0.05000307	          0.05000050	          0.05000920	          0.14909490	          0.16233889	          0.16126087	          0.08331813	          0.09080297	          0.08181982	          0.05254669	          0.05000302	          0.05008337	          0.05009386	          0.07805028	          0.19390266	          0.43771512	          0.05000462	          0.05003761	          0.05001445	          0.18072033	          0.09200492	          0.09200063	          0.07267615	          0.07120781	          0.10648721	          0.05000020	          0.07508453	          0.09711458	          0.09915204	          0.34329063	          0.35875764	          0.26470131	          0.58424701	          0.85365831	          0.23062264	          0.15366044	          0.05000046	          0.05000059	
